<mxfile host="app.diagrams.net" modified="2023-07-12T16:02:13.285Z" agent="Mozilla/5.0 (Windows NT 10.0; Win64; x64) AppleWebKit/537.36 (KHTML, like Gecko) Chrome/114.0.0.0 Safari/537.36" etag="DdPhyRAjbl-kYhiYV9gT" version="21.6.1" type="device">
  <diagram name="Page-1" id="kAB2hFjfWgqpE64oEd4l">
    <mxGraphModel dx="2840" dy="1580" grid="0" gridSize="10" guides="1" tooltips="1" connect="1" arrows="1" fold="1" page="0" pageScale="1" pageWidth="850" pageHeight="1100" math="0" shadow="0">
      <root>
        <mxCell id="0" />
        <mxCell id="1" parent="0" />
        <mxCell id="zUutDxms0hdh4pmi3613-61" value="" style="ellipse;whiteSpace=wrap;html=1;aspect=fixed;" vertex="1" parent="1">
          <mxGeometry x="615" y="509" width="57" height="57" as="geometry" />
        </mxCell>
        <mxCell id="zUutDxms0hdh4pmi3613-55" value="" style="ellipse;whiteSpace=wrap;html=1;aspect=fixed;" vertex="1" parent="1">
          <mxGeometry x="416" y="550" width="57" height="57" as="geometry" />
        </mxCell>
        <mxCell id="zUutDxms0hdh4pmi3613-53" value="" style="ellipse;whiteSpace=wrap;html=1;aspect=fixed;" vertex="1" parent="1">
          <mxGeometry x="515" y="444.5" width="57" height="57" as="geometry" />
        </mxCell>
        <mxCell id="zUutDxms0hdh4pmi3613-50" value="" style="ellipse;whiteSpace=wrap;html=1;aspect=fixed;" vertex="1" parent="1">
          <mxGeometry x="383" y="356" width="57" height="57" as="geometry" />
        </mxCell>
        <mxCell id="zUutDxms0hdh4pmi3613-47" value="" style="ellipse;whiteSpace=wrap;html=1;aspect=fixed;" vertex="1" parent="1">
          <mxGeometry x="246" y="611.5" width="57" height="57" as="geometry" />
        </mxCell>
        <mxCell id="zUutDxms0hdh4pmi3613-46" value="" style="ellipse;whiteSpace=wrap;html=1;aspect=fixed;" vertex="1" parent="1">
          <mxGeometry x="181" y="543" width="57" height="57" as="geometry" />
        </mxCell>
        <mxCell id="zUutDxms0hdh4pmi3613-1" value="" style="ellipse;whiteSpace=wrap;html=1;aspect=fixed;" vertex="1" parent="1">
          <mxGeometry x="263" y="264" width="57" height="57" as="geometry" />
        </mxCell>
        <mxCell id="zUutDxms0hdh4pmi3613-2" value="8" style="text;html=1;strokeColor=none;fillColor=none;align=center;verticalAlign=middle;whiteSpace=wrap;rounded=0;" vertex="1" parent="1">
          <mxGeometry x="261.5" y="277.5" width="60" height="30" as="geometry" />
        </mxCell>
        <mxCell id="zUutDxms0hdh4pmi3613-3" value="" style="endArrow=classic;html=1;rounded=0;" edge="1" parent="1">
          <mxGeometry width="50" height="50" relative="1" as="geometry">
            <mxPoint x="265" y="323" as="sourcePoint" />
            <mxPoint x="236" y="356" as="targetPoint" />
          </mxGeometry>
        </mxCell>
        <mxCell id="zUutDxms0hdh4pmi3613-4" value="" style="endArrow=classic;html=1;rounded=0;" edge="1" parent="1">
          <mxGeometry width="50" height="50" relative="1" as="geometry">
            <mxPoint x="323" y="321" as="sourcePoint" />
            <mxPoint x="377" y="359" as="targetPoint" />
          </mxGeometry>
        </mxCell>
        <mxCell id="zUutDxms0hdh4pmi3613-5" value="NONE" style="ellipse;whiteSpace=wrap;html=1;aspect=fixed;" vertex="1" parent="1">
          <mxGeometry x="196" y="363" width="57" height="57" as="geometry" />
        </mxCell>
        <mxCell id="zUutDxms0hdh4pmi3613-8" value="right" style="text;html=1;strokeColor=none;fillColor=none;align=center;verticalAlign=middle;whiteSpace=wrap;rounded=0;" vertex="1" parent="1">
          <mxGeometry x="347" y="301" width="60" height="30" as="geometry" />
        </mxCell>
        <mxCell id="zUutDxms0hdh4pmi3613-9" value="left" style="text;html=1;strokeColor=none;fillColor=none;align=center;verticalAlign=middle;whiteSpace=wrap;rounded=0;" vertex="1" parent="1">
          <mxGeometry x="177" y="291" width="60" height="30" as="geometry" />
        </mxCell>
        <mxCell id="zUutDxms0hdh4pmi3613-10" value="root" style="text;html=1;strokeColor=none;fillColor=none;align=center;verticalAlign=middle;whiteSpace=wrap;rounded=0;" vertex="1" parent="1">
          <mxGeometry x="268" y="231" width="60" height="30" as="geometry" />
        </mxCell>
        <mxCell id="zUutDxms0hdh4pmi3613-11" value="" style="ellipse;whiteSpace=wrap;html=1;aspect=fixed;" vertex="1" parent="1">
          <mxGeometry x="196" y="364" width="57" height="57" as="geometry" />
        </mxCell>
        <mxCell id="zUutDxms0hdh4pmi3613-12" value="3" style="text;html=1;strokeColor=none;fillColor=none;align=center;verticalAlign=middle;whiteSpace=wrap;rounded=0;" vertex="1" parent="1">
          <mxGeometry x="196" y="375" width="60" height="30" as="geometry" />
        </mxCell>
        <mxCell id="zUutDxms0hdh4pmi3613-13" value="" style="endArrow=classic;html=1;rounded=0;" edge="1" parent="1">
          <mxGeometry width="50" height="50" relative="1" as="geometry">
            <mxPoint x="198" y="423" as="sourcePoint" />
            <mxPoint x="169" y="456" as="targetPoint" />
          </mxGeometry>
        </mxCell>
        <mxCell id="zUutDxms0hdh4pmi3613-14" value="" style="endArrow=classic;html=1;rounded=0;" edge="1" parent="1">
          <mxGeometry width="50" height="50" relative="1" as="geometry">
            <mxPoint x="256" y="421" as="sourcePoint" />
            <mxPoint x="310" y="459" as="targetPoint" />
          </mxGeometry>
        </mxCell>
        <mxCell id="zUutDxms0hdh4pmi3613-16" value="NONE" style="ellipse;whiteSpace=wrap;html=1;aspect=fixed;" vertex="1" parent="1">
          <mxGeometry x="281" y="466" width="57" height="57" as="geometry" />
        </mxCell>
        <mxCell id="zUutDxms0hdh4pmi3613-17" value="right" style="text;html=1;strokeColor=none;fillColor=none;align=center;verticalAlign=middle;whiteSpace=wrap;rounded=0;" vertex="1" parent="1">
          <mxGeometry x="280" y="401" width="60" height="30" as="geometry" />
        </mxCell>
        <mxCell id="zUutDxms0hdh4pmi3613-18" value="left" style="text;html=1;strokeColor=none;fillColor=none;align=center;verticalAlign=middle;whiteSpace=wrap;rounded=0;" vertex="1" parent="1">
          <mxGeometry x="98" y="401" width="60" height="30" as="geometry" />
        </mxCell>
        <mxCell id="zUutDxms0hdh4pmi3613-19" value="root" style="text;html=1;strokeColor=none;fillColor=none;align=center;verticalAlign=middle;whiteSpace=wrap;rounded=0;" vertex="1" parent="1">
          <mxGeometry x="191" y="334" width="60" height="30" as="geometry" />
        </mxCell>
        <mxCell id="zUutDxms0hdh4pmi3613-20" value="" style="ellipse;whiteSpace=wrap;html=1;aspect=fixed;" vertex="1" parent="1">
          <mxGeometry x="284" y="468" width="57" height="57" as="geometry" />
        </mxCell>
        <mxCell id="zUutDxms0hdh4pmi3613-21" value="6" style="text;html=1;strokeColor=none;fillColor=none;align=center;verticalAlign=middle;whiteSpace=wrap;rounded=0;" vertex="1" parent="1">
          <mxGeometry x="282.5" y="479" width="60" height="30" as="geometry" />
        </mxCell>
        <mxCell id="zUutDxms0hdh4pmi3613-22" value="" style="endArrow=classic;html=1;rounded=0;" edge="1" parent="1">
          <mxGeometry width="50" height="50" relative="1" as="geometry">
            <mxPoint x="286" y="527" as="sourcePoint" />
            <mxPoint x="257" y="560" as="targetPoint" />
          </mxGeometry>
        </mxCell>
        <mxCell id="zUutDxms0hdh4pmi3613-23" value="" style="endArrow=classic;html=1;rounded=0;" edge="1" parent="1">
          <mxGeometry width="50" height="50" relative="1" as="geometry">
            <mxPoint x="344" y="525" as="sourcePoint" />
            <mxPoint x="398" y="563" as="targetPoint" />
          </mxGeometry>
        </mxCell>
        <mxCell id="zUutDxms0hdh4pmi3613-26" value="right" style="text;html=1;strokeColor=none;fillColor=none;align=center;verticalAlign=middle;whiteSpace=wrap;rounded=0;" vertex="1" parent="1">
          <mxGeometry x="368" y="505" width="60" height="30" as="geometry" />
        </mxCell>
        <mxCell id="zUutDxms0hdh4pmi3613-27" value="left" style="text;html=1;strokeColor=none;fillColor=none;align=center;verticalAlign=middle;whiteSpace=wrap;rounded=0;" vertex="1" parent="1">
          <mxGeometry x="212" y="509" width="60" height="30" as="geometry" />
        </mxCell>
        <mxCell id="zUutDxms0hdh4pmi3613-28" value="root" style="text;html=1;strokeColor=none;fillColor=none;align=center;verticalAlign=middle;whiteSpace=wrap;rounded=0;" vertex="1" parent="1">
          <mxGeometry x="294" y="434" width="60" height="30" as="geometry" />
        </mxCell>
        <mxCell id="zUutDxms0hdh4pmi3613-29" value="NONE" style="ellipse;whiteSpace=wrap;html=1;aspect=fixed;" vertex="1" parent="1">
          <mxGeometry x="79" y="470" width="57" height="57" as="geometry" />
        </mxCell>
        <mxCell id="zUutDxms0hdh4pmi3613-30" value="" style="ellipse;whiteSpace=wrap;html=1;aspect=fixed;" vertex="1" parent="1">
          <mxGeometry x="75.75" y="470" width="57" height="57" as="geometry" />
        </mxCell>
        <mxCell id="zUutDxms0hdh4pmi3613-31" value="1" style="text;html=1;strokeColor=none;fillColor=none;align=center;verticalAlign=middle;whiteSpace=wrap;rounded=0;" vertex="1" parent="1">
          <mxGeometry x="74.25" y="478.5" width="60" height="30" as="geometry" />
        </mxCell>
        <mxCell id="zUutDxms0hdh4pmi3613-36" value="root" style="text;html=1;strokeColor=none;fillColor=none;align=center;verticalAlign=middle;whiteSpace=wrap;rounded=0;" vertex="1" parent="1">
          <mxGeometry x="80.75" y="437" width="60" height="30" as="geometry" />
        </mxCell>
        <mxCell id="zUutDxms0hdh4pmi3613-37" value="tr1" style="text;html=1;strokeColor=none;fillColor=none;align=center;verticalAlign=middle;whiteSpace=wrap;rounded=0;" vertex="1" parent="1">
          <mxGeometry x="200" y="231" width="60" height="30" as="geometry" />
        </mxCell>
        <mxCell id="zUutDxms0hdh4pmi3613-38" value="tr2" style="text;html=1;strokeColor=none;fillColor=none;align=center;verticalAlign=middle;whiteSpace=wrap;rounded=0;" vertex="1" parent="1">
          <mxGeometry x="121" y="338" width="60" height="30" as="geometry" />
        </mxCell>
        <mxCell id="zUutDxms0hdh4pmi3613-39" value="tr3" style="text;html=1;strokeColor=none;fillColor=none;align=center;verticalAlign=middle;whiteSpace=wrap;rounded=0;" vertex="1" parent="1">
          <mxGeometry x="218" y="458" width="60" height="30" as="geometry" />
        </mxCell>
        <mxCell id="zUutDxms0hdh4pmi3613-40" value="tr4" style="text;html=1;strokeColor=none;fillColor=none;align=center;verticalAlign=middle;whiteSpace=wrap;rounded=0;" vertex="1" parent="1">
          <mxGeometry x="20.75" y="454" width="60" height="30" as="geometry" />
        </mxCell>
        <mxCell id="zUutDxms0hdh4pmi3613-41" value="Actor" style="shape=umlActor;verticalLabelPosition=bottom;verticalAlign=top;html=1;outlineConnect=0;" vertex="1" parent="1">
          <mxGeometry x="407" y="95" width="30" height="60" as="geometry" />
        </mxCell>
        <mxCell id="zUutDxms0hdh4pmi3613-42" value="7" style="text;html=1;strokeColor=none;fillColor=none;align=center;verticalAlign=middle;whiteSpace=wrap;rounded=0;" vertex="1" parent="1">
          <mxGeometry x="413" y="559" width="60" height="30" as="geometry" />
        </mxCell>
        <mxCell id="zUutDxms0hdh4pmi3613-43" value="4" style="text;html=1;strokeColor=none;fillColor=none;align=center;verticalAlign=middle;whiteSpace=wrap;rounded=0;" vertex="1" parent="1">
          <mxGeometry x="177" y="550" width="60" height="30" as="geometry" />
        </mxCell>
        <mxCell id="zUutDxms0hdh4pmi3613-44" value="5" style="text;html=1;strokeColor=none;fillColor=none;align=center;verticalAlign=middle;whiteSpace=wrap;rounded=0;" vertex="1" parent="1">
          <mxGeometry x="251" y="625" width="60" height="30" as="geometry" />
        </mxCell>
        <mxCell id="zUutDxms0hdh4pmi3613-45" value="" style="endArrow=classic;html=1;rounded=0;" edge="1" parent="1">
          <mxGeometry width="50" height="50" relative="1" as="geometry">
            <mxPoint x="212" y="582" as="sourcePoint" />
            <mxPoint x="266" y="620" as="targetPoint" />
          </mxGeometry>
        </mxCell>
        <mxCell id="zUutDxms0hdh4pmi3613-49" value="10" style="text;html=1;strokeColor=none;fillColor=none;align=center;verticalAlign=middle;whiteSpace=wrap;rounded=0;" vertex="1" parent="1">
          <mxGeometry x="380" y="364" width="60" height="30" as="geometry" />
        </mxCell>
        <mxCell id="zUutDxms0hdh4pmi3613-51" value="11" style="text;html=1;strokeColor=none;fillColor=none;align=center;verticalAlign=middle;whiteSpace=wrap;rounded=0;" vertex="1" parent="1">
          <mxGeometry x="515" y="458" width="60" height="30" as="geometry" />
        </mxCell>
        <mxCell id="zUutDxms0hdh4pmi3613-52" value="" style="endArrow=classic;html=1;rounded=0;" edge="1" parent="1">
          <mxGeometry width="50" height="50" relative="1" as="geometry">
            <mxPoint x="452" y="405" as="sourcePoint" />
            <mxPoint x="506" y="443" as="targetPoint" />
          </mxGeometry>
        </mxCell>
        <mxCell id="zUutDxms0hdh4pmi3613-56" value="" style="endArrow=classic;html=1;rounded=0;" edge="1" parent="1">
          <mxGeometry width="50" height="50" relative="1" as="geometry">
            <mxPoint x="480" y="607" as="sourcePoint" />
            <mxPoint x="534" y="645" as="targetPoint" />
          </mxGeometry>
        </mxCell>
        <mxCell id="zUutDxms0hdh4pmi3613-57" value="" style="endArrow=classic;html=1;rounded=0;" edge="1" parent="1">
          <mxGeometry width="50" height="50" relative="1" as="geometry">
            <mxPoint x="416" y="611.5" as="sourcePoint" />
            <mxPoint x="387" y="644.5" as="targetPoint" />
          </mxGeometry>
        </mxCell>
        <mxCell id="zUutDxms0hdh4pmi3613-58" value="NONE" style="ellipse;whiteSpace=wrap;html=1;aspect=fixed;" vertex="1" parent="1">
          <mxGeometry x="342.5" y="653" width="57" height="57" as="geometry" />
        </mxCell>
        <mxCell id="zUutDxms0hdh4pmi3613-59" value="NONE" style="ellipse;whiteSpace=wrap;html=1;aspect=fixed;" vertex="1" parent="1">
          <mxGeometry x="526" y="645" width="57" height="57" as="geometry" />
        </mxCell>
        <mxCell id="zUutDxms0hdh4pmi3613-60" value="11" style="text;html=1;strokeColor=none;fillColor=none;align=center;verticalAlign=middle;whiteSpace=wrap;rounded=0;" vertex="1" parent="1">
          <mxGeometry x="615" y="520" width="60" height="30" as="geometry" />
        </mxCell>
        <mxCell id="zUutDxms0hdh4pmi3613-62" value="" style="endArrow=classic;html=1;rounded=0;" edge="1" parent="1">
          <mxGeometry width="50" height="50" relative="1" as="geometry">
            <mxPoint x="566" y="497" as="sourcePoint" />
            <mxPoint x="620" y="535" as="targetPoint" />
          </mxGeometry>
        </mxCell>
      </root>
    </mxGraphModel>
  </diagram>
</mxfile>
